<?xml version="1.0" encoding="utf-8"?>
<!-- Generator: Adobe Illustrator 17.1.0, SVG Export Plug-In . SVG Version: 6.00 Build 0)  -->
<!DOCTYPE svg PUBLIC "-//W3C//DTD SVG 1.1//EN" "http://www.w3.org/Graphics/SVG/1.1/DTD/svg11.dtd">
<svg version="1.1" id="Layer_1" xmlns="http://www.w3.org/2000/svg" xmlns:xlink="http://www.w3.org/1999/xlink" x="0px" y="0px"
	 viewBox="249.8 -0.1 584.1 800.2" enable-background="new 249.8 -0.1 584.1 800.2" xml:space="preserve">
<path fill="#FFFFFF" d="M614.6,506.9l-22.4,21.9l-16.7-17.3l22.4-21.9c-4.6-1.7-9.7-2.3-14.4-1.7c-7.4,0-15,2.9-20.7,8.6
	c-8.6,8.6-11.6,20.7-8,31.7l-9.7,9.7l-31,31l-12.7,12.7c-7.4-1.1-15.6,1.1-21.9,6.9c-9.7,9.7-9.7,25.9,0,35.7
	c9.7,9.7,25.9,9.7,35.7,0c6.3-6.3,8.6-15,6.9-22.4l11.6-11.6l31-31l10.3-10.3c11,3.4,23,1.1,31.7-7.4c5.7-5.7,9.3-13.3,9.3-20.7
	C616.9,516.6,616.3,511.3,614.6,506.9z M496.6,615.6c-4.6,0-8.6-4-8.6-8.6c0-4.6,4-8.6,8.6-8.6s8.6,4,8.6,8.6
	C505.7,611.5,501.7,615.6,496.6,615.6z"/>
<path fill="#FFFFFF" d="M600.2,597.8l-35.7-38.6l-20.2-21.3L511,501.6c-0.6-0.6-1.1-1.1-2.3-1.7l-35.2-11.6c-1.7-0.6-2.9,0-4.6,1.1
	l0,0c-1.1,1.1-1.1,2.3-1.1,4l9.3,36.3c0,1.1,0.6,1.7,1.1,2.3l34.6,37.4l20.2,21.3l34.6,36.9c4.6,4.6,11.6,5.2,16.1,0.6l16.1-15
	C604.2,609.8,604.2,602.4,600.2,597.8z M483.9,524l-4.6-18.4l8-7.4l17.9,5.7L483.9,524z M510.4,518.9c-0.6-0.6-0.6-1.7,0-2.3
	l1.1-1.1c0.6-0.6,1.7-0.6,2.3,0l64.5,69.6c0.6,0.6,0.6,1.7,0,2.3l-1.1,1.1c-0.6,0.6-1.7,0.6-2.3,0L510.4,518.9z M591.6,609.2
	l-10.3,9.7c-2.9,2.9-7.4,2.3-10.3-0.6l-6.3-6.9l20.7-19.6l6.3,6.9C594.5,601.8,594.5,606.4,591.6,609.2z"/>
<line fill="none" x1="392.8" y1="417.4" x2="392.8" y2="417.4"/>
<circle fill="#FFFFFF" cx="660.1" cy="507.9" r="9.3"/>
<circle fill="#FFFFFF" cx="634.8" cy="461.9" r="9.3"/>
<circle fill="#FFFFFF" cx="454.5" cy="457.7" r="9.3"/>
<circle fill="#FFFFFF" cx="424" cy="503.3" r="9.3"/>
<path fill="#FFFFFF" d="M431.4,574.8c-1.7,0-2.9,0.6-4.6,0l-3.4,5.2l-5.2-1.7l1.1-6.3c-1.1-1.1-2.3-1.7-3.4-2.9l-6.3,1.1l-2.3-4.6
	l5.2-3.4c0-1.7,0-2.9,0-4.6l-5.2-3.4l1.7-5.2l6.3,1.1c1.1-1.1,1.7-2.3,2.9-3.4v-5.2l4.6-2.3l3.4,5.2c1.7,0,2.9,0,4.6,0l3.4-5.2
	l4.6,2.3l-1.1,5.7c1.1,1.1,2.3,1.7,3.4,2.9l6.3-1.7l2.3,4.6l-5.2,3.4c0,1.7,0.6,2.9,0,4.6l5.2,3.4l-1.7,5.2l-6.3-1.1
	c-1.1,1.1-1.7,2.3-2.9,3.4l1.7,6.3l-4.6,2.3L431.4,574.8z"/>
<circle fill="#FFFFFF" cx="444.7" cy="619.7" r="9.3"/>
<path fill="#FFFFFF" d="M478.1,672.1c-5.2,0-9.3-4-9.3-9.3s4-9.3,9.3-9.3c5.2,0,9.3,4,9.3,9.3C488,667.4,483.3,672.1,478.1,672.1z"
	/>
<g>
	<path fill="none" d="M387.1,300.6c6.3,1.7,12.7,3.4,19.6,4c-0.6,0.6-0.6,1.7-0.6,2.9l0.6,9.7c0,3.4,2.9,6.3,6.3,6.3l10.3-0.6
		c3.4,0,6.3-2.9,6.3-6.3l-0.6-9.7c0-1.1-0.6-1.7-0.6-2.9c6.3-1.1,12.7-2.9,19-5.2c0,0.6,0,1.7,0.6,2.3l4.6,8.6
		c1.7,2.9,5.7,4,8.6,2.9l9.3-4.6c2.9-1.7,4-5.2,2.9-8.6l-4.6-8.6c-0.6-0.6-1.1-1.7-1.7-1.7c5.2-3.4,10.3-8,15-12.7
		c0.6,0.6,1.1,1.1,1.7,1.7l8,5.7c2.9,2.3,6.9,1.1,8.6-1.1l6.3-8c2.3-2.9,1.1-6.9-1.1-8.6l-8-5.7c-0.6-0.6-1.1-0.6-2.3-1.1
		c3.4-5.7,5.7-11.6,7.4-17.9c0.6,0.6,1.1,0.6,2.3,0.6l9.7,1.7c3.4,0.6,6.9-1.7,7.4-5.2l1.7-10.3c0.6-3.4-1.7-6.9-5.2-7.4l-9.7-1.7
		c-0.6,0-1.7,0-2.3,0c0.6-6.3,0-13.3-1.1-19.6c0.6,0,1.1,0,2.3,0l9.7-2.9c3.4-1.1,5.2-4.6,4.6-8l-2.9-9.7c-1.1-3.4-4.6-5.2-8-4.6
		l-9.7,2.9c-0.6,0-1.1,0.6-1.7,1.1c-2.3-5.7-5.7-11.6-9.3-17.3c0.6,0,1.1-0.6,1.7-1.1l7.4-6.9c2.3-2.3,2.9-6.3,0.6-8.6l-6.9-7.4
		c-2.3-2.3-6.3-2.9-9.3-0.6l-7.4,6.9c-0.6,0.6-1.1,1.1-1.1,1.7c-4.6-4-9.3-7.4-14.4-10.3c-0.6-0.6-1.1-0.6-1.7-0.6
		c0.6-0.6,0.6-1.1,1.1-1.7l4-9.3c1.1-3.4,0-6.9-3.4-8l-9.7-4c-3.4-1.1-6.9,0-8,3.4l-4.6,9.3c0,0.6-0.6,1.1-0.6,1.7
		c-4-1.1-8.6-2.3-12.7-2.3c0-0.6,0.6-1.1,0.6-1.7v-9.7c0-3.4-2.9-6.3-6.3-6.3h-10.3c-3.4,0-6.3,2.9-6.3,6.3v9.7c0,0.6,0,1.7,0.6,2.3
		c-6.3,0.6-12.7,2.3-19,4.6c0-0.6,0-1.7-0.6-2.3l-4.6-9.3c-1.7-2.9-5.2-4.6-8.6-2.9l-9.3,4.6c-2.9,1.7-4.6,5.2-2.9,8.6l4.6,9.3
		c0.6,0.6,0.6,1.1,1.1,1.7c-5.2,3.4-10.3,7.4-15,12c-0.6-0.6-1.1-1.1-1.7-1.7l-8-6.3c-2.9-2.3-6.9-1.7-8.6,1.1l-6.3,8
		c-2.3,2.9-1.7,6.9,1.1,8.6l8,6.3c0.6,0.6,1.1,1.1,2.3,1.1c0,0.6-0.6,0.6-0.6,1.1c-2.9,5.2-5.7,11-7.4,16.7
		c-0.6-0.6-1.7-0.6-2.3-1.1l-9.7-2.3c-3.4-0.6-6.9,1.7-7.4,4.6l-3.4,9.7c-0.6,3.4,1.7,6.9,5.2,7.4l9.7,2.3c1.1,0,1.7,0,2.9,0
		c-0.6,6.3-0.6,13.3,0.6,19.6c-1.1,0-1.7,0-2.9,0l-9.7,2.3c-3.4,0.6-5.7,4-4.6,7.4l2.3,9.7c0.6,3.4,4.6,5.2,7.4,4.6l9.7-2.3
		c1.1,0,1.7-0.6,2.3-1.1c2.3,6.3,5.2,12,9.3,17.3c-1.1,0-1.7,0.6-2.9,1.1l-7.4,6.3c-2.9,2.3-2.9,6.3-0.6,8.6l6.9,8
		c2.3,2.9,6.3,2.9,9.3,0.6l7.4-6.3c0.6-0.6,1.1-1.7,1.7-2.3c4.6,4.6,9.7,8.6,16.1,12c-0.6,0.6-1.1,1.1-1.7,2.3l-4,9.3
		c-1.1,3.4,0,6.9,3.4,8l9.3,4c3.4,1.1,6.9,0,8.6-3.4l4-9.3C387.1,302.3,387.1,301.2,387.1,300.6z M459.1,177.3
		c8,9.7,13.3,22.4,13.3,36.3c0,13.9-4.6,26.6-13.3,36.3l-21.3-21.3c4-5.7,5.2-12.7,4-19.6c-0.6-4-2.3-7.4-4-11L459.1,177.3z
		 M414.8,156c13.9,0,26.6,4.6,36.3,13.3L429.7,190c-5.7-3.4-12-5.2-19.6-4c-4,0.6-7.4,2.3-11,4l-21.3-21.3
		C388.2,160.7,400.9,156,414.8,156z M428.1,223.4c-2.3,3.4-6.3,5.7-11,6.3c-9.3,1.1-17.3-4.6-19-13.9c-1.1-9.3,4.6-17.3,13.9-19
		c1.1,0,1.7,0,2.3,0c8,0,15,5.7,16.1,13.9C431.4,215.3,430.4,220,428.1,223.4z M369.8,249.9c-8-9.7-13.3-22.4-13.3-36.3
		c0-13.9,4.6-26.6,13.3-36.3l21.3,21.3c-3.4,5.7-5.2,12.7-4,19.6c0.6,4,2.3,7.4,4,11L369.8,249.9z M378.5,257.9l21.3-21.3
		c4.6,2.9,9.7,4.6,15,4.6c1.7,0,2.9,0,4.6-0.6c4-0.6,7.4-2.3,11-4l21.3,21.3c-9.7,8-22.4,13.3-36.3,13.3
		C400.9,271.2,388.2,266,378.5,257.9z"/>
	<path fill="none" d="M541.4,167.6c15.6-47.9,52.3-87.6,98.5-115.2c2.3-1.7,5.2-2.9,8-4.6c-31-20.7-67.9-31.7-106.5-31.7
		c-38,0-74.9,11.6-105.9,32.3c2.3,1.1,5.2,2.9,7.4,4C489.7,80.1,525.9,119.7,541.4,167.6z"/>
	<path fill="none" d="M542,371.4c0,0,9.7-7.4,20.2-18.4c-1.7-1.1-4-2.3-5.7-2.9l0,0c-9.3-4-19-4-28.7,0l0,0c-2.3,0.6-4,1.7-5.7,2.9
		C531.7,364,542,371.4,542,371.4z"/>
	<path fill="none" d="M530.6,310.9c7.4-1.1,15-1.1,22.4,0l8.6-14.4c5.2,1.1,9.7,2.3,14.4,4.6l0,0l0,0c1.1,0.6,1.7,0.6,2.9,1.1
		L542,257.9l-36.3,44.3c5.2-2.3,10.3-4,16.1-5.2L530.6,310.9z"/>
	<path fill="none" d="M773.6,220l-9.7-1.7c-0.6,0-1.7,0-2.3,0c0.6-6.3,0-13.3-1.1-19.6c0.6,0,1.1,0,2.3,0l9.7-2.9
		c3.4-1.1,5.2-4.6,4.6-7.4l-2.9-9.7c-1.1-3.4-4.6-5.2-8-4.6l-9.7,2.9c-0.6,0-1.1,0.6-1.7,1.1c-2.3-5.7-5.7-11.6-9.3-17.3
		c0.6,0,1.1-0.6,1.7-1.1l7.4-6.9c2.3-2.3,2.9-6.3,0.6-8.6l-6.9-7.4c-2.3-2.3-6.3-2.9-9.3-0.6l-7.4,6.9c-0.6,0.6-0.6,1.1-1.1,1.7
		c-4.6-4-9.3-7.4-14.4-10.3c-0.6-0.6-1.1-0.6-1.7-0.6c0.6-0.6,0.6-1.1,1.1-1.7l4-9.3c1.1-3.4,0-6.9-3.4-8l-9.7-4
		c-3.4-1.1-6.9,0-8,3.4l-4,9.3c-0.6,0.6-0.6,1.1-0.6,1.7c-4-1.1-8.6-2.3-12.7-2.3c0-0.6,0.6-1.1,0.6-1.7v-9.7c0-3.4-2.9-6.3-6.3-6.3
		h-11.6c-3.4,0-6.3,2.9-6.3,6.3v9.7c0,0.6,0,1.7,0.6,2.3c-6.3,0.6-12.7,2.3-19,4.6c0-0.6,0-1.7-0.6-2.3l-4.6-9.3
		c-1.7-2.9-5.2-4.6-8.6-2.9L616,118c-2.9,1.7-4.6,5.2-2.9,8.6l4.6,9.3c0.6,0.6,0.6,1.1,1.1,1.7c-5.2,3.4-10.3,7.4-15,12
		c-0.6-0.6-1.1-1.1-1.7-1.7l-8-6.3c-2.9-2.3-6.9-1.7-8.6,1.1l-6.3,8c-2.3,2.9-1.7,6.9,1.1,8.6l8,6.3c0.6,0.6,1.1,1.1,2.3,1.1
		c0,0.6-0.6,0.6-0.6,1.1c-2.9,5.2-5.7,11-7.4,16.7c-0.6-0.6-1.7-0.6-2.3-1.1l-9.7-2.3c-3.4-0.6-6.9,1.7-7.4,4.6l-2.9,9.7
		c-0.6,3.4,1.7,6.9,5.2,7.4l9.7,2.3c1.1,0,1.7,0,2.9,0c-0.6,6.3-0.6,13.3,0.6,19.6c-1.1,0-1.7,0-2.9,0l-9.7,2.3
		c-3.4,0.6-5.7,4-4.6,7.4l2.3,9.7c0.6,3.4,4.6,5.2,7.4,4.6l9.7-2.3c1.1,0,1.7-0.6,2.3-1.1c2.3,6.3,5.2,12,9.3,17.3
		c-1.1,0-1.7,0.6-2.9,1.1l-7.4,6.3c-2.9,2.3-2.9,6.3-0.6,8.6l6.9,8c2.3,2.9,6.3,2.9,9.3,0.6l7.4-6.3c0.6-0.6,1.1-1.7,1.7-2.3
		c4.6,4.6,9.7,8.6,16.1,12c-0.6,0.6-1.1,1.1-1.7,2.3l-4,9.3c-1.1,2.9,0,6.9,3.4,8l9.3,4c3.4,1.1,6.9,0,8.6-3.4l4-9.3
		c0.6-1.1,0.6-1.7,0.6-2.9c6.3,1.7,12.7,3.4,19.6,4c-0.6,0.6-0.6,1.7-0.6,2.9l0.6,9.7c0,3.4,2.9,6.3,6.3,6.3l10.3-0.6
		c3.4,0,6.3-2.9,6.3-6.3l-0.6-9.7c0-1.1-0.6-1.7-0.6-2.9c6.3-1.1,12.7-2.9,19-5.2c0,0.6,0,1.7,0.6,2.3l4.6,8.6
		c1.7,2.9,5.7,4,8.6,2.9l9.3-4.6c2.9-1.7,4-5.2,2.9-8.6l-4.6-8.6c-0.6-0.6-1.1-1.7-1.7-1.7c5.2-3.4,10.3-8,15-12.7
		c0.6,0.6,1.1,1.1,1.7,1.7l8,5.7c2.9,2.3,6.9,1.1,8.6-1.1l6.3-8c2.3-2.9,1.1-6.9-1.1-8.6l-8-5.7c-0.6-0.6-1.1-0.6-2.3-1.1
		c3.4-5.7,5.7-11.6,7.4-17.9c0.6,0.6,1.1,0.6,2.3,0.6l9.7,1.7c3.4,0.6,6.9-1.7,7.4-5.2l1.7-10.3C779.3,224,777,220.6,773.6,220z
		 M669.4,156c17.3,0,33.4,8,43.7,20.2h-87.6C635.9,164.1,651.5,156,669.4,156z M669.4,271.2c-17.3,0-33.4-8-43.7-20.2h87.6
		C702.1,263.2,686.5,271.2,669.4,271.2z M720.5,239.6H618c-2.9-6.3-5.2-12.7-5.7-20.2h114.6C725.8,226.3,723.4,233.2,720.5,239.6z
		 M611.8,207.9c0.6-6.9,2.9-13.9,5.7-20.2H720c2.9,6.3,5.2,12.7,5.7,20.2H611.8z"/>
	<path fill="none" d="M504.6,715.3L504.6,715.3L504.6,715.3z"/>
	<path fill="none" d="M574.3,407.1C573.7,408.3,574.9,406.6,574.3,407.1L574.3,407.1z"/>
	<path fill="none" d="M542,396.1c-12.7,0-24.7,1.1-35.7,4l0,0l0,0c4,9.7,12,17.9,21.9,21.9l0,0c9.3,4,19,4,28.7,0l0,0
		c7.4-2.9,13.9-8,17.9-15c1.1-2.3,2.9-4.6,4-6.9l0,0l0,0l0,0C566.2,398,554.7,396.1,542,396.1z"/>
	<path fill="none" d="M627.2,419.8L627.2,419.8L627.2,419.8L627.2,419.8c-1.1,2.3-1.7,4.6-2.9,6.9c0,0.6-0.6,0.6-0.6,1.1
		c-0.6,1.7-1.7,2.9-2.9,4.6c-0.6,0.6-1.1,1.7-1.1,2.3l0,0l0,0l-16.1-3.4c-4.6,6.3-9.7,11.6-15.6,15.6l4,16.1l0,0l0,0
		c-9.3,5.7-19,9.7-29.3,12l-8.6-13.9c-7.4,1.1-15,1.1-22.4,0l-8.6,14.4c-5.2-1.1-9.7-2.3-14.4-4.6l0,0l0,0c-2.3-1.1-4.6-1.7-6.3-2.9
		c-0.6,0-0.6-0.6-1.1-0.6c-1.7-0.6-2.9-1.7-4.6-2.9c-0.6-0.6-1.7-1.1-2.3-1.1l0,0l0,0l3.4-16.1c-6.3-4.6-11.6-9.7-15.6-15.6l-16.1,4
		l0,0l0,0c-3.4-5.2-5.7-10.3-8-16.1c-43.7,26.6-70.9,71.3-70.9,114.6c0,73.7,58.2,146.2,103.1,191.8l1.7,1.7c2.3-2.9,0.6-1.1,0,0
		l0,0c3.4-4.6,8-9.3,12.7-12.7c-4,3.4,0,0,0,0l-5.7-25.9l20.2-8l13.9,22.4c6.3-1.1,12.7-0.6,19,0l14.4-22.4l20.2,8.6l-6.3,25.9
		c4.6,3.4,0.6,0.6,0.6,0.6c4,3.4,8,7.4,11.6,11.6l1.7-1.7c19.6-19.6,42-44.3,60.5-72.6c-3.4-2.9-6.9-6.9-9.3-9.3l-12.7,3.4
		c-4.6-6.9-8-15-9.7-22.4l11-6.9c-1.1-5.7-1.1-11.6-0.6-17.3l-11-6.9c1.7-8,4.6-16.1,9.3-23l12.7,2.9c3.4-4.6,7.4-9.3,12-12.7
		l-3.4-12.7c6.9-4.6,15-8,22.4-9.7l6.9,11c2.9-0.6,9.7-0.6,13.9-0.6c0.6-4.6,0.6-9.3,0.6-14.4C697.5,490.6,671.1,445.7,627.2,419.8z
		"/>
	<path fill="none" d="M542,728.4c-13.3,0-24.7,6.3-31,16.7l0,0c18.4,16.7,31,25.9,31,26.6c0.6,0,13.3-9.7,31-26.6l0,0
		C566.2,734.9,554.7,728.4,542,728.4z"/>
	<path fill="none" d="M504.6,715.3C504.6,715.3,504,715.3,504.6,715.3L504.6,715.3L504.6,715.3z"/>
	<path fill="none" d="M542,771.7L542,771.7L542,771.7z"/>
	<path fill="none" d="M661.8,607.5c0,8,2.9,15.6,8,20.7c9.3-16.7,16.7-34,21.3-51.3C675.1,577.6,661.8,590.9,661.8,607.5z"/>
	<path fill="#FFFFFF" d="M387.1,218.3c-1.1-6.9,0.6-13.9,4-19.6l-21.3-21.3c-8,9.7-13.3,22.4-13.3,36.3c0,13.9,4.6,26.6,13.3,36.3
		l21.3-21.3C389.4,225.7,387.7,222.3,387.1,218.3z"/>
	<path fill="#FFFFFF" d="M451.1,257.9l-21.3-21.3c-3.4,2.3-6.9,3.4-11,4c-1.7,0-2.9,0.6-4.6,0.6c-5.7,0-11-1.7-15-4.6l-21.3,21.3
		c9.7,8,22.4,13.3,36.3,13.3C428.5,271.2,441.3,266,451.1,257.9z"/>
	<path fill="#FFFFFF" d="M669.4,156c-17.3,0-33.4,8-43.7,20.2h87.6C702.1,164.1,686.5,156,669.4,156z"/>
	<path fill="#FFFFFF" d="M410.1,186c7.4-1.1,13.9,0.6,19.6,4l21.3-21.3c-9.7-8-22.4-13.3-36.3-13.3c-13.9,0-26.6,4.6-36.3,13.3
		l21.3,21.3C402.7,188.3,406.1,186.6,410.1,186z"/>
	<path fill="#FFFFFF" d="M442.4,209c1.1,6.9-0.6,13.9-4,19.6l21.3,21.3c8-9.7,13.3-22.4,13.3-36.3c0-13.9-4.6-26.6-13.3-36.3
		l-21.3,21.3C440.1,201.6,441.8,205,442.4,209z"/>
	<path fill="#FFFFFF" d="M414.8,197c-0.6,0-1.7,0-2.3,0c-9.3,1.1-15,9.7-13.9,19c1.1,8.6,9.7,15,19,13.9c4.6-0.6,8-2.9,11-6.3
		c2.3-3.4,3.4-8,2.9-12C429.7,203.3,422.8,197,414.8,197z"/>
	<path fill="#FFFFFF" d="M618.1,187.7c-2.9,6.3-5.2,12.7-5.7,20.2H727c-0.6-6.9-2.9-13.9-5.7-20.2L618.1,187.7L618.1,187.7z"/>
	<path fill="#FFFFFF" d="M669.4,271.2c17.3,0,33.4-8,43.7-20.2h-87.6C635.9,263.2,651.5,271.2,669.4,271.2z"/>
	<path fill="#652D89" d="M729.8,656c2.3-2.3,4-4.6,6.3-6.9c-1.7,2.3-4,4-6.3,5.7V656z"/>
	<path fill="#652D89" d="M736.1,648.4c1.7-2.3,3.4-4,5.2-6.3l0,0C739.7,644.4,737.8,646.7,736.1,648.4z"/>
	<path fill="#FFFFFF" d="M618.1,239.6h102.4c2.9-6.3,5.2-12.7,5.7-20.2H611.6C612.9,226.3,614.6,233.2,618.1,239.6z"/>
	<path fill="#FFFFFF" d="M683.1,548.9l-6.9-11c-8,1.7-15.6,5.2-22.4,9.7l3.4,12.7c-4.6,3.4-8.6,7.4-12,12.7l-12.7-2.8
		c-4.6,7.4-7.4,15-9.3,23l11,6.9c-0.6,5.7-0.6,11.6,0.6,17.3l-11,6.9c1.7,8,5.2,15.6,9.7,22.4l12.7-3.4c1.7,2.9,5.2,6.3,9.3,9.3
		c5.2-8,10.3-16.7,15.6-24.7c-5.2-5.7-8-12.7-8-20.7c0-16.7,13.3-30,29.3-30.6c2.3-9.3,4.6-19,5.2-28.3
		C692.9,548.9,686.1,548.9,683.1,548.9z"/>
	<path fill="#652D89" d="M490.7,728.4C491.4,728,491.4,728,490.7,728.4L490.7,728.4C491.4,728,490.7,728.4,490.7,728.4z"/>
	<path fill="#652D89" d="M504.6,715.3C504,715.3,500,718.7,504.6,715.3C504,715.3,504.6,715.3,504.6,715.3L504.6,715.3z"/>
	<path fill="#652D89" d="M491.4,728L491.4,728C492,726.7,493.7,725,491.4,728z"/>
	<path fill="#FFFFFF" d="M580.6,715.8C580.6,715.8,585.2,719.3,580.6,715.8l5.7-26.6l-20.2-8.6L551.7,703c-6.3-1.1-12.7-1.1-19,0
		l-13.9-22.4l-20.2,8l5.7,25.9l0,0l0,0l0,0l0,0c-4.6,3.4-9.3,7.4-12.7,12.7l19,17.3c6.9-9.7,18.4-16.7,31-16.7
		c13.3,0,24.2,6.3,31,16.1l19-17.3C588.6,723.3,585.2,719.3,580.6,715.8z"/>
	<path fill="#652D89" d="M605.3,758.4C605.9,764.3,605.3,758.4,605.3,758.4L605.3,758.4z"/>
	<path fill="#FFFFFF" d="M785,283.3c12-20.2,19-43.7,19-69.2c0-0.6,0-0.6,0-1.1C804,78.8,832.3,4.6,832.3,4.6H826
		c-57.6,0-114.6,12.7-161.2,34.6C629.1,13.8,586.5-0.1,542.2-0.1s-86.9,13.9-122.6,39.7c-47.4-22.4-104.4-35.1-162-35.1h-6.3
		c0,0,28.3,74.3,28.3,208.5c0,0.6,0,0.6,0,1.1c0,25.3,6.9,48.9,19,69.2c-119.4,151.5-4.2,357.2,179.6,479.3
		c9.3,6.3,18.4,12,28.3,17.9c11.6,6.9,23.6,13.9,35.7,19.6l0,0c12-6.3,24.2-13.3,35.7-20.2c9.3-5.7,18.4-11.6,27.6-17.3
		c38-25.3,73.7-54.2,104.2-85.9c6.9-6.9,13.3-13.9,19.6-21.3l-0.6-1.1c2.3-1.7,4.6-3.4,6.3-5.7c0,0,0-0.6,0.6-0.6
		c1.7-1.7,3.4-4,5.2-6.3l0,0c6.3-7.4,12-15,17.9-22.4C839.9,510.9,865.2,385.3,785,283.3z M542,16.1c38.6,0,74.9,11,106.5,31.7
		c-2.9,1.7-5.7,2.9-8,4.6c-46,27.6-82.9,67.3-98.5,115.2c-15.6-47.9-52.3-87.6-98.5-115.2c-2.3-1.7-5.2-2.9-7.4-4
		C467.1,27.6,504,16.1,542,16.1z M574.3,407.1c-4,6.3-11,12-17.9,15l0,0c-9.7,4-19,4-28.7,0l0,0c-9.7-4-17.9-12-21.9-21.9l0,0l0,0
		c11.6-2.3,23.6-4,35.7-4c12.7,0,24.7,1.1,36.3,4l0,0l0,0l0,0C577.2,402.5,575.5,405.4,574.3,407.1
		C574.9,406.6,573.7,408.3,574.3,407.1z M562.2,353.1c-10.3,11-20.2,18.4-20.2,18.4s-9.7-7.4-20.2-18.4c-11-12-22.4-27.6-22.4-43.7
		l6.3-7.4l36.3-44.3l36.9,44.3l6.3,7.4C584.6,325.4,573.2,340.9,562.2,353.1z M374.5,315.5l-9.3-4c-2.9-1.1-4.6-5.2-3.4-8l4-9.3
		c0.6-1.1,1.1-1.7,1.7-2.3c-5.7-3.4-11-7.4-16.1-12c-0.6,1.1-1.1,1.7-1.7,2.3l-7.4,6.3c-2.9,2.3-6.9,1.7-9.3-0.6l-6.9-8
		c-2.3-2.9-1.7-6.9,0.6-8.6l7.4-6.3c0.6-0.6,1.7-1.1,2.9-1.1c-3.4-5.7-6.9-11.6-9.3-17.3c-0.6,0.6-1.7,1.1-2.3,1.1l-9.7,2.3
		c-3.4,0.6-6.9-1.1-7.4-4.6l-2.3-9.7c-0.6-3.4,1.1-6.9,4.6-7.4l9.7-2.3c1.1,0,1.7,0,2.9,0c-0.6-6.3-1.1-13.3-0.6-19.6
		c-1.1,0-1.7,0-2.9,0l-9.7-2.3c-3.4-0.6-5.7-4-5.2-7.4l2.3-9.7c0.6-3.4,4-5.7,7.4-4.6l9.7,2.3c0.6,0,1.7,0.6,2.3,1.1
		c1.7-5.7,4.6-11,7.4-16.7c1.1-1.7,1.1-1.7,1.1-2.3c-0.6,0-1.7-0.6-2.3-1.1l-8-6.3c-2.9-2.3-3.4-6.3-1.1-8.6l6.3-8
		c2.3-2.9,6.3-3.4,8.6-1.1l8,6.3c0.6,0.6,1.1,1.1,1.7,1.7c4.6-4.6,9.7-8.6,15-12c-0.6-0.6-1.1-1.1-1.1-1.7l-4-9.3
		c-1.7-2.9,0-6.9,2.9-8.6l9.3-4.6c2.9-1.7,6.9,0,8.6,2.9l4.6,9.3c0.6,0.6,0.6,1.1,0.6,2.3c6.3-2.3,12.7-3.4,19-4.6
		c0-0.6-0.6-1.1-0.6-2.3v-9.7c0-3.4,2.9-6.3,6.3-6.3h10.3c3.4,0,6.3,2.9,6.3,6.3v9.7c0,0.6,0,1.1-0.6,1.7c4.6,0.6,8.6,1.1,12.7,2.3
		c0-0.6,0-1.1,0.6-1.7l4-9.3c1.1-3.4,5.2-4.6,8-3.4l9.7,4c3.4,1.1,4.6,5.2,3.4,8l-4,9.3c0,0.6-0.6,1.1-1.1,1.7
		c0.6,0.6,1.1,0.6,1.7,0.6c5.2,2.9,10.3,6.3,14.4,10.3c0.6-0.6,0.6-1.1,1.1-1.7l7.4-6.9c2.9-2.3,6.9-2.3,9.3,0.6l6.9,7.4
		c2.3,2.3,2.3,6.3-0.6,8.6l-7.4,6.9c-0.6,0.6-1.1,0.6-1.7,1.1c4,5.2,6.9,11,9.3,17.3c0.6-0.6,1.1-0.6,1.7-1.1l9.7-2.9
		c3.4-1.1,6.9,1.1,8,4.6l2.9,9.7c1.1,3.4-1.1,6.9-4.6,8l-9.7,2.9c-0.6,0-1.1,0-2.3,0c1.1,6.3,1.1,12.7,1.1,19.6c0.6,0,1.1,0,2.3,0
		l9.7,1.7c3.4,0.6,5.7,4,5.2,7.4l-1.7,10.3c-0.6,3.4-4,5.7-7.4,5.2l-9.7-1.7c-0.6,0-1.7-0.6-2.3-0.6c-1.7,6.3-4.6,12-7.4,17.9
		c0.6,0,1.7,0.6,2.3,1.1l8,5.7c2.9,2.3,3.4,5.7,1.1,8.6l-6.3,8c-2.3,2.9-6.3,3.4-8.6,1.1l-8-5.7c-0.6-0.6-1.1-1.1-1.7-1.7
		c-4.6,4.6-9.7,9.3-15,12.7c0.6,0.6,1.1,1.1,1.7,1.7l5.7,9.3c1.7,2.9,0.6,6.9-2.9,8.6l-9.3,4.6c-2.9,1.7-6.9,0.6-8.6-2.9l-4.6-8.6
		c-0.6-0.6-0.6-1.7-0.6-2.3c-6.3,2.3-12.7,4-19,5.2c0.6,0.6,0.6,1.7,0.6,2.9l0.6,9.7c0,3.4-2.9,6.3-6.3,6.3l-10.3,0.6
		c-3.4,0-6.3-2.9-6.3-6.3l-0.6-9.7c0-1.1,0-1.7,0.6-2.9c-6.3-0.6-13.3-1.7-19.6-4c0,1.1,0,1.7-0.6,2.9l-4,9.3
		C381.4,315.5,377.2,316.8,374.5,315.5z M605.3,758.4L605.3,758.4C605.3,758.4,605.9,764.3,605.3,758.4z M697,548.9
		c-1.1,9.7-2.9,19-5.2,28.3c-4.6,17.9-12,35.2-21.3,51.3c-4.6,8.6-9.7,16.7-15.6,24.7c-18.4,27.6-40.9,53-60.5,72.6l-1.7,1.7
		l-19,17.3l0,0c-18.4,16.7-31,25.9-31,26.6l0,0l0,0l0,0c-0.6,0-13.3-9.7-31-26.6l0,0l-19-17.3L492,728c0,0,0,0,0.6-0.6l0,0l-1.7-1.7
		c-45.6-44.9-103.1-117.5-103.1-191.8c0-43.7,26.6-88.6,70.9-114.6c2.3,5.7,5.2,11,8,16.1l0,0l0,0l16.1-4c4.6,5.7,9.7,11,15.6,15.6
		l-3.4,16.1l0,0l0,0c0.6,0.6,1.7,1.1,2.3,1.1c1.7,1.1,2.9,1.7,4.6,2.9c0.6,0,0.6,0.6,1.1,0.6c2.3,1.1,4,2.3,6.3,2.9l0,0l0,0
		c4.6,1.7,9.7,3.4,14.4,4.6l8.6-14.4c7.4,1.1,15,1.1,22.4,0l8.6,13.9c10.3-2.3,20.2-6.3,29.3-12l0,0l0,0l-4-16.1
		c5.7-4.6,11-9.7,15.6-15.6l16.1,3.4l0,0l0,0c0.6-0.6,1.1-1.7,1.1-2.3c1.1-1.7,1.7-2.9,2.9-4.6c0-0.6,0.6-0.6,0.6-1.1
		c1.1-2.3,2.3-4,2.9-6.3l0,0l0,0l0,0c43.7,26.6,70.3,71.3,70.3,114.6C697.5,539,697.5,543.6,697,548.9z M776.4,237.9
		c-0.6,3.4-4,5.7-7.4,5.2l-9.9-1.9c-0.6,0-1.7-0.6-2.3-0.6c-1.7,6.3-4.6,12-7.4,17.9c0.6,0,1.7,0.6,2.3,1.1l8,5.7
		c2.9,2.3,3.4,5.7,1.1,8.6l-6.3,8c-2.3,2.9-6.3,3.4-8.6,1.1l-8-5.7c-0.6-0.6-1.1-1.1-1.7-1.7c-4.6,4.6-9.7,9.3-15,12.7
		c0.6,0.6,1.1,1.1,1.7,1.7l4.6,8.6c1.7,2.9,0.6,6.9-2.9,8.6l-9.3,4.6c-2.9,1.7-6.9,0.6-8.6-2.9l-4.6-8.6c-0.6-0.6-0.6-1.7-0.6-2.3
		c-6.3,2.3-12.7,4-19,5.2c0.6,0.6,0.6,1.7,0.6,2.9l0.6,9.7c0,3.4-2.9,6.3-6.3,6.3l-10.3,0.6c-3.4,0-6.3-2.9-6.3-6.3l-0.6-9.7
		c0-1.1,0-1.7,0.6-2.9c-6.3-0.6-13.3-1.7-19.6-4c0,1.1,0,1.7-0.6,2.9l-4,9.3c-1.1,2.9-5.2,4.6-8.6,3.4l-9.3-4
		c-2.9-1.1-4.6-5.2-3.4-8l4-9.3c0.6-1.1,1.1-1.7,1.7-2.3c-5.7-3.4-11-7.4-16.1-12c-0.6,1.1-1.1,1.7-1.7,2.3l-7.4,6.3
		c-2.9,2.3-6.9,1.7-9.3-0.6l-6.9-8c-2.3-2.9-1.7-6.3,0.6-8.6l7.4-6.3c0.6-0.6,1.7-1.1,2.9-1.1c-3.4-5.7-6.9-11.6-9.3-17.3
		c-0.6,0.6-1.7,1.1-2.3,1.1l-9.7,2.3c-3.4,0.6-6.9-1.1-7.4-4.6l-2.3-9.7c-0.6-3.4,1.1-6.9,4.6-7.4l9.7-2.3c1.1,0,1.7,0,2.9,0
		c-0.6-6.3-1.1-13.3-0.6-19.6c-1.1,0-1.7,0-2.9,0l-9.7-2.3c-3.4-0.6-5.7-4-5.2-7.4l2.3-9.7c0.6-3.4,4-5.7,7.4-4.6l9.7,2.3
		c0.6,0,1.7,0.6,2.3,1.1c1.7-5.7,4.6-11,7.4-16.7c0-0.6,0.6-0.6,0.6-1.1c-0.6,0-1.7-0.6-2.3-1.1l-8-6.3c-2.9-2.3-3.4-6.3-1.1-8.6
		l6.3-8c2.3-2.9,6.3-3.4,8.6-1.1l8,6.3c0.6,0.6,1.1,1.1,1.7,1.7c4.6-4.6,9.7-8.6,15-12c-0.6-0.6-1.1-1.1-1.1-1.7l-4.6-9.3
		c-1.7-2.9,0-6.9,2.9-8.6l9.3-4.6c2.9-1.7,6.9,0,8.6,2.9l4.6,9.3c0.6,0.6,0.6,1.1,0.6,2.3c6.3-2.3,12.7-3.4,19-4.6
		c0-0.6-0.6-1.1-0.6-2.3v-9.7c0-3.4,2.9-6.3,6.3-6.3h10.3c3.4,0,6.3,2.9,6.3,6.3v9.7c0,0.6,0,1.1-0.6,1.7c4.6,0.6,8.6,1.1,12.7,2.3
		c0-0.6,0-1.1,0.6-1.7l4-9.3c1.1-3.4,5.2-4.6,8-3.4l9.7,4c3.4,1.1,4.6,5.2,3.4,8l-4,9.3c0,0.6-0.6,1.1-1.1,1.7
		c0.6,0.6,1.1,0.6,1.7,0.6c5.2,2.9,10.3,6.3,14.4,10.3c0.6-0.6,0.6-1.1,1.1-1.7l7.4-6.9c2.3-2.3,6.9-2.3,9.3,0.6l6.9,7.4
		c2.3,2.3,2.3,6.3-0.6,8.6l-7.4,6.9c-0.6,0.6-1.1,0.6-1.7,1.1c4,5.2,6.9,11,9.3,17.3c0.6-0.6,1.1-0.6,1.7-1.1l9.7-2.9
		c3.4-1.1,6.9,1.1,8,4.6l2.9,9.7c1.1,3.4-1.1,6.9-4.6,7.4l-9.7,2.9c-0.6,0-1.1,0-2.3,0c1.1,6.3,1.1,12.7,1.1,19.6c0.6,0,1.1,0,2.3,0
		l9.7,1.7c3.4,0.6,5.7,4,5.2,7.4L776.4,237.9z"/>
</g>
</svg>
