<?xml version="1.0" encoding="utf-8"?>
<!-- Generator: Adobe Illustrator 17.1.0, SVG Export Plug-In . SVG Version: 6.00 Build 0)  -->
<!DOCTYPE svg PUBLIC "-//W3C//DTD SVG 1.1//EN" "http://www.w3.org/Graphics/SVG/1.1/DTD/svg11.dtd">
<svg version="1.1" id="Layer_1" xmlns="http://www.w3.org/2000/svg" xmlns:xlink="http://www.w3.org/1999/xlink" x="0px" y="0px"
	 viewBox="0 0 590.8 521" enable-background="new 0 0 590.8 521" xml:space="preserve">
<g>
	<g>
		<g>
			<g>
				<path fill="#FFFFFF" d="M295.3,80.5c7.5-22.9,25.2-42,47.3-55.3c1.2-0.7,2.6-1.4,3.9-2.1c-15.1-9.9-32.7-15.3-51.2-15.3
					c-18.3,0-36,5.4-51.1,15.4c1.2,0.7,2.5,1.3,3.7,2C270.1,38.5,287.8,57.6,295.3,80.5z"/>
			</g>
			<path fill="#64257E" d="M412.5,136.4c5.8-9.7,9.2-21.1,9.2-33.2c0-0.2,0-0.3,0-0.5c0.1-64.5,13.7-100.4,13.7-100.4h-3.2
				c-27.6,0-55.1,6.1-77.7,16.7C337.4,6.7,316.9,0,295.4,0c-21.3,0-41.9,6.7-59,19.1C213.8,8.4,186.2,2.3,158.6,2.3h-3.2
				c0,0,13.6,35.9,13.7,100.4c0,0.2,0,0.3,0,0.5c0,12.1,3.4,23.5,9.2,33.2c-63.8,81,11.7,194.2,117.1,248.6h0
				C400.8,330.6,476.3,217.4,412.5,136.4z M295.4,7.8c18.4,0,36.1,5.4,51.2,15.3c-1.3,0.7-2.6,1.4-3.9,2.1
				c-22.2,13.3-39.8,32.4-47.3,55.3c-7.5-22.9-25.2-42-47.3-55.3c-1.2-0.7-2.5-1.3-3.7-2C259.4,13.3,277.1,7.8,295.4,7.8z"/>
			<path fill="#FFFFFF" d="M295.4,124.1l-20.6,24.9c0,14.5,20.5,29.8,20.5,29.8s20.6-15.3,20.6-29.8L295.4,124.1z"/>
			<path fill="#FFFFFF" d="M406.7,106l-4.8-0.8c-0.4-0.1-0.7,0-1.1,0c0.2-3.1,0-6.3-0.5-9.4c0.3,0,0.7,0,1-0.1l4.7-1.3
				c1.6-0.5,2.6-2.1,2.1-3.7l-1.4-4.7c-0.5-1.6-2.2-2.5-3.8-2.1l-4.7,1.3c-0.3,0.1-0.6,0.3-0.9,0.5c-1.2-2.9-2.7-5.6-4.6-8.2
				c0.3-0.1,0.6-0.3,0.9-0.5l3.6-3.2c1.2-1.1,1.4-3,0.2-4.3l-3.4-3.7c-1.1-1.2-3.1-1.3-4.3-0.2l-3.6,3.2c-0.2,0.2-0.4,0.5-0.6,0.8
				c-2.1-1.8-4.4-3.5-7-5c-0.3-0.1-0.5-0.3-0.8-0.4c0.2-0.2,0.4-0.5,0.5-0.8l1.8-4.5c0.6-1.5-0.1-3.3-1.7-3.9l-4.6-1.8
				c-1.6-0.6-3.4,0.1-4,1.7l-1.8,4.5c-0.1,0.3-0.2,0.6-0.2,1c-2.1-0.6-4.1-1-6.2-1.2c0.1-0.3,0.2-0.6,0.2-0.9v-4.8
				c0-1.7-1.4-3-3.1-3h-5c-1.7,0-3.1,1.4-3.1,3V58c0,0.4,0.1,0.7,0.2,1c-3.1,0.4-6.2,1.1-9.2,2.1c0-0.4-0.1-0.7-0.3-1l-2.1-4.3
				c-0.7-1.5-2.6-2.1-4.1-1.4l-4.5,2.2c-1.5,0.7-2.1,2.6-1.4,4.1l2.1,4.3c0.2,0.3,0.4,0.6,0.7,0.9c-2.6,1.7-5.1,3.7-7.3,5.9
				c-0.2-0.3-0.4-0.6-0.8-0.9l-3.9-3c-1.3-1-3.3-0.8-4.3,0.5l-3.1,3.9c-1,1.3-0.8,3.2,0.5,4.3l3.8,3c0.3,0.3,0.7,0.4,1.1,0.5
				c-0.1,0.2-0.2,0.4-0.4,0.6c-1.5,2.6-2.7,5.2-3.6,7.9c-0.3-0.2-0.7-0.4-1.1-0.5l-4.8-1c-1.6-0.3-3.3,0.7-3.6,2.3l-1,4.8
				c-0.3,1.6,0.7,3.3,2.4,3.6l4.8,1c0.4,0.1,0.9,0.1,1.3,0c-0.3,3.2-0.2,6.3,0.2,9.4c-0.4-0.1-0.9-0.1-1.3,0l-4.7,1.2
				c-1.6,0.4-2.6,2.1-2.2,3.7l1.2,4.8c0.4,1.6,2.1,2.6,3.7,2.2l4.7-1.2c0.5-0.1,0.8-0.3,1.2-0.6c1.1,2.9,2.6,5.8,4.4,8.4
				c-0.4,0.1-0.9,0.3-1.3,0.6l-3.7,3.1c-1.3,1.1-1.5,3-0.4,4.3l3.2,3.8c1.1,1.3,3,1.4,4.3,0.4l3.7-3.1c0.4-0.3,0.6-0.7,0.8-1.1
				c2.3,2.1,4.8,4.1,7.6,5.7c-0.4,0.3-0.7,0.6-0.9,1.1l-2,4.4c-0.7,1.5,0,3.3,1.5,4l4.6,2c1.5,0.7,3.3,0,4-1.5l2-4.4
				c0.2-0.4,0.2-0.9,0.2-1.3c3.1,1,6.2,1.5,9.4,1.8c-0.2,0.4-0.3,0.8-0.3,1.3l0.2,4.8c0.1,1.7,1.5,3,3.2,2.9l5-0.2
				c1.7-0.1,3-1.5,3-3.1l-0.2-4.8c0-0.5-0.1-0.9-0.3-1.3c3.1-0.5,6.2-1.3,9.2-2.4c0,0.4,0.1,0.8,0.3,1.2l2.3,4.3
				c0.8,1.5,2.6,2,4.1,1.3l4.4-2.3c1.5-0.8,2.1-2.6,1.3-4.1l-2.3-4.3c-0.2-0.4-0.5-0.7-0.8-1c2.6-1.8,5-3.8,7.2-6.1
				c0.2,0.3,0.5,0.6,0.8,0.9l3.9,2.8c1.4,1,3.3,0.7,4.3-0.7l2.9-4c1-1.3,0.7-3.3-0.7-4.2l-3.9-2.8c-0.3-0.2-0.7-0.4-1-0.5
				c1.6-2.8,2.8-5.7,3.7-8.6c0.3,0.2,0.7,0.3,1,0.4l4.8,0.8c1.7,0.3,3.3-0.8,3.6-2.5l0.9-4.9C409.5,107.9,408.4,106.3,406.7,106z
				 M331.9,115.2c-1.5-3-2.5-6.2-2.8-9.6h55.1c-0.3,3.4-1.3,6.7-2.8,9.6H331.9z M377.6,120.8c-5.1,5.9-12.6,9.7-21,9.7
				c-8.4,0-16-3.8-21-9.7H377.6z M329.1,100.1c0.3-3.4,1.3-6.7,2.8-9.6h49.4c1.5,3,2.5,6.2,2.8,9.6H329.1z M335.6,84.9
				c5.1-5.9,12.6-9.7,21.1-9.7c8.4,0,16,3.8,21,9.7H335.6z"/>
			<path fill="#FFFFFF" d="M284.3,106l-4.8-0.8c-0.4-0.1-0.7,0-1.1,0c0.2-3.1,0-6.3-0.4-9.4c0.3,0,0.7,0,1-0.1l4.7-1.3
				c1.6-0.5,2.6-2.1,2.1-3.7l-1.4-4.7c-0.5-1.6-2.2-2.5-3.8-2.1l-4.7,1.3c-0.3,0.1-0.6,0.3-0.9,0.5c-1.2-2.9-2.7-5.6-4.6-8.2
				c0.3-0.1,0.6-0.3,0.8-0.5l3.6-3.2c1.2-1.1,1.4-3,0.2-4.3l-3.4-3.7c-1.1-1.2-3.1-1.3-4.3-0.2l-3.6,3.2c-0.2,0.2-0.4,0.5-0.6,0.8
				c-2.1-1.8-4.4-3.5-7-5c-0.3-0.1-0.5-0.3-0.8-0.4c0.2-0.2,0.4-0.5,0.5-0.8l1.8-4.5c0.6-1.5-0.1-3.3-1.7-3.9l-4.6-1.9
				c-1.6-0.6-3.4,0.1-4,1.7l-1.8,4.5c-0.1,0.3-0.2,0.6-0.2,1c-2.1-0.6-4.1-1-6.2-1.2c0.1-0.3,0.2-0.6,0.2-0.9v-4.8
				c0-1.7-1.4-3-3.1-3h-5c-1.7,0-3.1,1.4-3.1,3V58c0,0.4,0.1,0.7,0.2,1c-3.1,0.4-6.2,1.1-9.2,2.1c0-0.4-0.1-0.7-0.3-1l-2.1-4.3
				c-0.7-1.5-2.6-2.1-4.1-1.4l-4.5,2.2c-1.5,0.7-2.1,2.6-1.4,4.1l2.1,4.3c0.2,0.3,0.4,0.6,0.7,0.9c-2.6,1.7-5.1,3.7-7.3,5.9
				c-0.2-0.3-0.4-0.6-0.8-0.9l-3.9-3c-1.3-1-3.3-0.8-4.3,0.5l-3.1,3.9c-1,1.3-0.8,3.2,0.5,4.3l3.8,3c0.3,0.3,0.7,0.4,1.1,0.5
				c-0.1,0.2-0.2,0.4-0.4,0.6c-1.5,2.6-2.7,5.2-3.6,7.9c-0.3-0.2-0.7-0.4-1.1-0.5l-4.8-1c-1.6-0.3-3.3,0.7-3.6,2.3l-1,4.8
				c-0.3,1.6,0.7,3.3,2.4,3.6l4.8,1c0.4,0.1,0.9,0.1,1.3,0c-0.3,3.2-0.2,6.3,0.2,9.4c-0.4-0.1-0.9-0.1-1.3,0l-4.7,1.2
				c-1.6,0.4-2.6,2.1-2.2,3.7l1.2,4.8c0.4,1.6,2.1,2.6,3.7,2.2l4.7-1.2c0.5-0.1,0.8-0.3,1.2-0.6c1.1,2.9,2.6,5.8,4.4,8.4
				c-0.4,0.1-0.9,0.3-1.3,0.6l-3.7,3.1c-1.3,1.1-1.5,3-0.4,4.3l3.2,3.8c1.1,1.3,3,1.4,4.3,0.4l3.7-3.1c0.4-0.3,0.6-0.7,0.8-1.1
				c2.3,2.1,4.8,4.1,7.6,5.7c-0.4,0.3-0.7,0.6-0.9,1.1l-2,4.4c-0.7,1.5,0,3.3,1.5,4l4.6,2c1.5,0.7,3.3,0,4-1.5l2-4.4
				c0.2-0.4,0.2-0.9,0.2-1.3c3.1,1,6.2,1.5,9.4,1.8c-0.2,0.4-0.3,0.8-0.3,1.3l0.2,4.8c0.1,1.7,1.5,3,3.2,2.9l5-0.2
				c1.7-0.1,3-1.5,3-3.1l-0.2-4.8c0-0.5-0.1-0.9-0.3-1.3c3.1-0.5,6.2-1.3,9.2-2.4c0,0.4,0.1,0.8,0.3,1.2l2.3,4.3
				c0.8,1.5,2.6,2,4.1,1.3l4.4-2.3c1.5-0.8,2.1-2.6,1.3-4.1l-2.3-4.3c-0.2-0.4-0.5-0.7-0.8-1c2.6-1.8,5-3.8,7.2-6.1
				c0.2,0.3,0.5,0.6,0.8,0.9l3.9,2.8c1.4,1,3.3,0.7,4.3-0.7l2.9-4c1-1.3,0.7-3.3-0.7-4.2l-3.9-2.8c-0.3-0.2-0.7-0.4-1-0.5
				c1.6-2.8,2.8-5.7,3.7-8.6c0.3,0.2,0.6,0.3,1,0.4l4.8,0.8c1.7,0.3,3.3-0.8,3.6-2.4l0.9-4.9C287.1,107.9,285.9,106.3,284.3,106z
				 M241.5,91.5c-2.7-1.7-6-2.6-9.4-2c-1.9,0.3-3.7,1-5.2,2l-10.2-10.2c4.8-3.9,10.9-6.3,17.5-6.3c6.6,0,12.7,2.3,17.5,6.3
				L241.5,91.5z M240.6,107.5c-1.2,1.7-3.1,2.8-5.2,3.2c-4.3,0.7-8.4-2.4-9-6.6c-0.7-4.3,2.3-8.4,6.6-9.1c0.4-0.1,0.8-0.1,1.2-0.1
				c3.8,0,7.2,2.9,7.8,6.7C242.3,103.7,241.8,105.7,240.6,107.5z M222.9,95.5c-1.8,2.7-2.6,6-2.1,9.4c0.3,1.9,1,3.7,2,5.2
				l-10.2,10.2c-3.9-4.8-6.3-10.9-6.3-17.5c0-6.6,2.3-12.7,6.3-17.5L222.9,95.5z M226.8,114.1c2.1,1.4,4.6,2.2,7.3,2.2
				c0.7,0,1.4-0.1,2.1-0.2c1.9-0.3,3.7-1,5.2-2l10.2,10.2c-4.8,3.9-10.9,6.3-17.5,6.3c-6.6,0-12.7-2.3-17.5-6.3L226.8,114.1z
				 M245.4,110.1c1.8-2.8,2.6-6.1,2.1-9.4c-0.3-1.9-1-3.7-2-5.2l10.2-10.2c3.9,4.8,6.3,10.9,6.3,17.5c0,6.6-2.3,12.7-6.3,17.5
				L245.4,110.1z"/>
			<g>
				<path fill="#FFFFFF" d="M295.4,190.7c-6.1,0-11.8,0.6-17.3,1.8c2.7,6.6,9,11.4,16.5,11.7c8.1,0.4,15.3-4.6,18.2-11.7
					C307.2,191.4,301.5,190.7,295.4,190.7z"/>
				<path fill="#FFFFFF" d="M269.4,292c0,2.3,1.9,4.2,4.2,4.2c2.3,0,4.2-1.9,4.2-4.2c0-2.3-1.9-4.2-4.2-4.2
					C271.3,287.8,269.4,289.7,269.4,292z"/>
				<g>
					<path fill="#FFFFFF" d="M281.6,248.3c-0.3-0.3-0.7-0.3-1,0l-0.6,0.5c-0.3,0.3-0.3,0.7,0,1l31.1,33.5c0.3,0.3,0.7,0.3,1,0
						l0.6-0.5c0.3-0.3,0.3-0.7,0-1L281.6,248.3z"/>
				</g>
				<g>
					<g>
						<path fill="#FFFFFF" d="M336.4,201.1"/>
						<polygon fill="#FFFFFF" points="277.3,242.9 268.8,240.1 265,243.5 267.2,252.3 						"/>
						<g>
							<path fill="#FFFFFF" d="M254.4,201.1C254.4,201.1,254.4,201.1,254.4,201.1"/>
							<path fill="#FFFFFF" d="M349.8,313.6C349.8,313.6,349.8,313.6,349.8,313.6"/>
							<g>
								<path fill="#FFFFFF" d="M369.9,263C369.9,263,369.9,263,369.9,263"/>
								<path fill="#FFFFFF" d="M270.9,350c1.8-2.3,3.9-4.4,6.3-6.2l-2.8-12.5l9.8-4l6.8,10.9c3.1-0.4,6.1-0.4,9.1,0.1l6.8-10.8
									l9.8,4.1l-3,12.5c2.3,1.7,4.2,3.7,6,5.9c9.7-9.6,20.7-21.9,30-35.8c-1.6-1.3-3.1-2.8-4.4-4.4l-6.1,1.5
									c-2.3-3.4-3.9-7.1-4.8-10.9l5.2-3.4c-0.5-2.7-0.5-5.5-0.2-8.4l-5.4-3.2c0.8-3.9,2.2-7.6,4.3-11.1l6.1,1.3
									c1.7-2.3,3.6-4.3,5.8-6l-1.5-6.1c3.4-2.3,7.1-3.9,10.9-4.8l3.4,5.2c2.2-0.4,4.4-0.5,6.6-0.3c0.2-2.2,0.4-4.4,0.4-6.6
									c0-21-12.8-42.7-33.9-55.3c-1,2.5-2.2,4.9-3.6,7.1l-7.8-1.8c-2.1,2.9-4.7,5.5-7.5,7.6l1.9,7.8c-4.4,2.8-9.1,4.8-14,5.9
									l-4.3-6.8c-3.5,0.5-7.1,0.6-10.7,0.1l-4.2,6.8c-4.9-1.1-9.7-3-14.1-5.7l1.8-7.8c-2.9-2.1-5.5-4.7-7.6-7.5l-7.8,1.9
									c-1.6-2.5-2.9-5-3.9-7.7c-21.1,12.6-34,34.3-34,55.3c0,35.6,27.9,70.4,49.7,92.1 M238.5,237.8c2.5,0,4.5,2,4.5,4.5
									c0,2.5-2,4.5-4.5,4.5c-2.5,0-4.5-2-4.5-4.5C233.9,239.9,236,237.8,238.5,237.8z M242.3,276.7c-0.7,0.1-1.5,0.1-2.2,0
									l-1.6,2.6l-2.4-0.9l0.6-3c-0.6-0.4-1.1-0.9-1.6-1.5l-3,0.7l-1-2.3l2.5-1.7c-0.1-0.7-0.1-1.4,0-2.2l-2.6-1.5l0.9-2.4l3,0.6
									c0.4-0.6,0.9-1.1,1.5-1.6l-0.8-3l2.3-1l1.7,2.5c0.7-0.1,1.4-0.1,2.2,0l1.6-2.6l2.4,0.9l-0.6,3c0.6,0.4,1.1,0.9,1.6,1.5
									l3-0.8l1,2.3l-2.6,1.7c0.1,0.7,0.1,1.5,0.1,2.2l2.6,1.6l-0.9,2.4l-3-0.6c-0.4,0.6-0.9,1.1-1.5,1.6l0.7,2.9l-2.3,1
									L242.3,276.7z M248.7,302.8c-2.5,0-4.5-2-4.5-4.5c0-2.5,2-4.5,4.5-4.5c2.5,0,4.5,2,4.5,4.5
									C253.2,300.7,251.2,302.8,248.7,302.8z M253.2,224.9c-2.5,0-4.5-2-4.5-4.5c0-2.5,2-4.5,4.5-4.5c2.5,0,4.5,2,4.5,4.5
									C257.7,222.9,255.7,224.9,253.2,224.9z M264.8,323.4c-2.5,0-4.5-2-4.5-4.5c0-2.5,2-4.5,4.5-4.5c2.5,0,4.5,2,4.5,4.5
									C269.3,321.4,267.3,323.4,264.8,323.4z M330.9,250.9c-0.2,3.6-1.7,7.2-4.5,9.9c-4.2,4.1-10.1,5.2-15.3,3.5l-5,5l17.1,18.4
									c2.1,2.2,2,5.7-0.1,7.7l-7.8,7.2c-2.1,2-5.6,1.8-7.7-0.4l-16.5-17.8l-5.5,5.4c0.7,3.8-0.4,7.9-3.4,10.9
									c-4.8,4.8-12.5,4.8-17.3,0c-4.8-4.8-4.8-12.5,0-17.3c2.8-2.9,6.7-4,10.4-3.4l6.1-6.1l-16.7-18c-0.3-0.3-0.6-0.6-0.7-1
									l-4.4-17.5c-0.2-0.8,0-1.5,0.6-2.1l0,0c0.6-0.5,1.3-0.7,2.1-0.4l17.1,5.7c0.4,0.1,0.7,0.4,1,0.8l16.1,17.4l4.7-4.7
									c-1.6-5.2-0.3-11.1,3.9-15.2c2.8-2.7,6.4-4.1,10-4.2c2.4-0.3,4.8,0,7,0.8L311.4,246l8.1,8.3l10.8-10.5
									C331.1,246.1,331.3,248.6,330.9,250.9z M340,226.7c-2.5,0-4.5-2-4.5-4.5c0-2.5,2-4.5,4.5-4.5c2.5,0,4.5,2,4.5,4.5
									C344.6,224.7,342.5,226.7,340,226.7z M352.3,249.2c-2.5,0-4.5-2-4.5-4.5c0-2.5,2-4.5,4.5-4.5s4.5,2,4.5,4.5
									C356.8,247.1,354.8,249.2,352.3,249.2z"/>
							</g>
						</g>
						<path fill="#FFFFFF" d="M309.1,297.5c1.3,1.4,3.5,1.6,5,0.3l5-4.7c1.4-1.3,1.4-3.5,0.1-4.9l-3-3.2l-10.1,9.4L309.1,297.5z"/>
					</g>
					<g>
						<path fill="#FFFFFF" d="M353.4,291.2c-0.2,4,1.2,7.8,3.8,10.6c0.2-0.3,0.4-0.7,0.6-1c4-7.5,7.3-15.3,9.5-23.3
							C359.8,277.8,353.8,283.6,353.4,291.2z"/>
					</g>
					<path fill="#FFFFFF" d="M295.4,371.3c0,0,6.2-4.7,15-12.7c-4.6-7.1-13.6-10.2-21.8-6.9c-3.3,1.3-6.4,4.1-8.3,6.8
						C289.2,366.5,295.4,371.2,295.4,371.3L295.4,371.3z"/>
				</g>
			</g>
		</g>
	</g>
	<path fill-rule="evenodd" clip-rule="evenodd" fill="#64257E" d="M329.8,471c4.7,0,12.6-0.2,15.5-3.4c2.5-2.8,2.6-8.7,2.6-12.2
		l0-28.5c-5.1-1.4-10.4-2.5-15.7-3.2c-5.7-0.8-11.4-1.2-17.1-1.2c-6.6,0-13.5,0.9-19.5,3.7c-4.8,2.2-8.8,5.5-11.5,10
		c-2.8,4.6-3.9,9.8-3.9,15.2v39.8c0,5.4,1.1,10.6,3.9,15.2c2.7,4.6,6.7,7.8,11.5,10c6,2.8,13,3.6,19.5,3.6c3.8,0,7.5-0.1,11.3-0.4
		c3.6-0.3,7.2-0.7,10.8-1.2c2.7-0.4,5.3-0.8,8-1.3l0.1,0c-0.3-3.9-1-11.5-4.3-14c-2.8-2.1-8.2-1.7-11.4-1.5l-8.8,0.7
		c-1.9,0.1-3.7,0.2-5.6,0.2c-3.1,0-6.6-0.4-9.3-2c-2.3-1.3-4-3.1-4.9-5.5c-0.9-2.4-1.2-5-1.2-7.5v-32.5c0-2.6,0.3-5.2,1.2-7.6
		c0.9-2.5,2.6-4.4,4.8-5.8c2.7-1.7,6.2-2.1,9.3-2.1c1.4,0,2.8,0,4.2,0.1c1.4,0,2.8,0.1,4.2,0.2c1.7,0.2,3.3,0.4,5,0.6l1.2,0.1V471z
		 M0,489.2v27.4c5.2,1.4,10.4,2.5,15.7,3.2c5.7,0.8,11.4,1.2,17.1,1.1c6.6,0,13.5-0.9,19.5-3.7c4.8-2.2,8.8-5.5,11.5-10
		c2.7-4.6,3.9-9.8,3.9-15.1v-5c0-6.8-0.8-15.5-4.8-21.4c-4.8-7.1-13.3-9.2-21.4-9.5l-1.3,0v-7.4h23.8c0-4.2-0.2-11.1-3-13.7
		c-2.5-2.3-7.8-2.3-10.9-2.3l-9.9,0v-9.4H20.6v9.4H3.5c0,4.2,0.2,11.1,3,13.8c2.5,2.3,7.8,2.3,10.9,2.3h3.1v21.9h11.8
		c4.2,0,9.3,0.7,12.3,4c2.9,3.2,3.5,8.3,3.5,12.4v1.1c0,2.6-0.4,5.1-1.3,7.5c-0.9,2.5-2.6,4.5-4.8,5.9c-2.7,1.7-6.2,2.1-9.3,2.1
		c-4.3,0-10.7-0.2-14.6-1.2l-0.1-1c-0.1-1.8-0.3-3.7-0.8-5.4c-0.3-1.3-0.9-2.5-1.8-3.5C12.6,489.4,4.8,489.2,0,489.2 M79.1,449.2
		c2.1,13.5,3.3,18.5,19,16.2c5.8-0.9,11.7-2.7,17.2,0.3c2.2,1.2,3.9,3,4.9,5.4c1,2.5,1.3,5.3,1.3,7.9v8.7c0,2.6-0.3,5.4-1.3,7.9
		c-0.9,2.4-2.6,4.2-4.8,5.3c-2.7,1.5-6.1,1.8-9.1,1.8c-5.4,0-10.5-1.8-15.7-1.8c-1.7,0-3.4,0.2-5.1,0.6c-1.2,0.3-2.4,0.8-3.4,1.7
		c-2.9,2.7-3.1,9.9-3.1,14.1c4.3,0.9,8.7,1.6,13.1,2.1c4.7,0.5,9.5,0.8,14.3,0.8c6.6,0,13.8-0.9,19.8-3.7c4.7-2.2,8.7-5.4,11.2-10
		c2.6-4.7,3.6-9.9,3.6-15.2v-15.9c0-5.3-1-10.5-3.6-15.2c-2.6-4.6-6.5-7.8-11.2-10c-6-2.9-13.2-3.7-19.8-3.7
		c-4.8,0-9.5,0.2-14.3,0.8c-3.9,0.4-7.8,1.1-11.7,1.8L79.1,449.2z M269.4,520.2v-44.8c0-5.3-1.1-10.5-3.9-15.1
		c-2.7-4.6-6.7-7.8-11.5-10.1c-6-2.8-13-3.7-19.5-3.7c-8.3,0-14.3,0.8-22.2,2.5c-8.4-1.4-16.7-2.5-25.3-2.5
		c-6.6,0-13.5,0.9-19.5,3.7c-4.8,2.2-8.8,5.5-11.5,10.1c-2.7,4.6-3.9,9.8-3.9,15.1v44.8c5.1,0,13.5-0.2,16.7-3.7
		c2.7-3,2.8-9.3,2.8-13.1l0-24.1c0-2.6,0.3-5.2,1.2-7.6c0.9-2.5,2.6-4.4,4.8-5.8c2.7-1.7,6.2-2.1,9.3-2.1c5.2,0,9.6,0.4,14.7,1v31.4
		c4.8,0,12.6-0.2,15.6-3.4c2.1-2.3,2.4-6.4,2.5-9.3c0.3-6.1,0.1-12.5,0.1-18.7c5.1-0.6,9.5-1,14.7-1c3.1,0,6.6,0.4,9.3,2.1
		c2.2,1.4,3.9,3.3,4.8,5.8c0.9,2.4,1.3,5,1.3,7.6l0,24.1c0,3.8,0.1,10.1,2.8,13.1C255.9,520,264.3,520.2,269.4,520.2 M358.8,491.9
		v24.5c4.8,1.3,9.7,2.3,14.7,3c9,1.3,19.3,1.7,28.3,0.1c3.2-0.6,6.5-1.5,9.4-3.1c2.2-1.3,4.2-2.9,5.6-5c5.5-8.4,3.7-20,3.7-29.6
		c0-3.1,0-6.3-0.3-9.4c-0.2-2.2-0.7-4.5-1.6-6.5c-0.9-1.9-2.2-3.4-3.8-4.7c-2.1-1.7-4.8-2.9-7.3-3.8c-4-1.4-8.2-2.5-12.3-3.5
		c-2.9-0.7-5.8-1.4-8.6-2.2c-1.7-0.5-3.6-1.2-5-2.3c-0.8-0.7-1.4-1.5-1.8-2.5H361c0.3,3.3,0.7,6.6,2.2,9.6c0.9,1.9,2.3,3.4,4,4.6
		c2.1,1.5,4.7,2.7,7.1,3.5c3.6,1.2,7.4,2.2,11.2,2.9c3,0.6,6.1,1.3,9,2.2c1.7,0.6,3.8,1.4,5.2,2.6c1.2,1.1,2,2.4,2.2,4
		c0.3,1.7,0.3,3.6,0.3,5.3c0,5.7,1.3,17.3-2.8,21.5c-1.2,1.2-3.1,1.7-4.7,2c-5.6,1-13.3,0.4-18.9-0.4c-0.2-3-0.3-7.2-2.4-9.6
		C370.6,492.1,363.3,491.9,358.8,491.9 M458.3,422.9h-18.9c0.2,6.2,2.2,11.8,8.1,14.6c1.9,0.9,4.4,1.6,6.4,2.1c1.4,0.4,4,1,4.9,2.3
		c1.9,3,2.2,9.2,2.1,11.1l-1.3,0.2c-2.8,0.4-5.6,1-8.3,2c-4.2,1.5-8.2,3.5-11.4,6.6c-2.7,2.6-4.9,5.7-6.3,9.2c-1.3,3.4-2,6.9-2,10.6
		v10.1c0,3.6,0.6,7.2,2,10.6c1.4,3.5,3.6,6.6,6.3,9.2c3.2,3.1,7.2,5.2,11.4,6.6c5.5,1.9,11.6,2.5,17.3,2.5c5.8,0,11.9-0.6,17.3-2.5
		c4.1-1.5,8.1-3.6,11.3-6.6c2.7-2.6,5-5.7,6.3-9.2c1.3-3.4,1.9-6.9,1.9-10.6v-10.1c0-3.6-0.6-7.2-1.9-10.6c-1.4-3.5-3.6-6.6-6.3-9.2
		c-3.2-3.1-7.2-5.2-11.3-6.6c-1.4-0.5-2.8-0.9-4.2-1.3c0-4.6,0.2-11-1-15.3c-0.6-2.1-2.1-3.4-4.1-4.2c-1.9-0.8-5.2-1.4-7.3-1.8
		c-2.5-0.5-5.6-1.3-7.6-2.8c-1.1-0.8-1.9-1.8-2.5-3.1C458.8,425.5,458.5,424.2,458.3,422.9 M486.2,489.7c0,4-1.2,7.6-4.3,10.2
		c-5.8,4.9-20.5,4.9-26.3,0c-3.1-2.6-4.3-6.2-4.3-10.2v-6.2c0-4,1.2-7.6,4.3-10.2c5.9-5,20.3-5,26.3,0c3.1,2.6,4.3,6.2,4.3,10.2
		V489.7z M516.9,520.2c5.1,0,13.5-0.1,16.7-3.7c2.7-3,2.8-9.3,2.8-13.1c0-8.7,0-17.4,0-26.1c0-4,1.3-7.6,4.3-10.2
		c3.5-3,8.7-3.6,13.1-3.6c4.4,0,9.6,0.7,13.1,3.6c3.1,2.6,4.4,6.2,4.4,10.2v26.1c0,3.8,0.1,10.1,2.8,13.1c3.2,3.5,11.6,3.7,16.7,3.7
		v-44.8c0-3.6-0.7-7.2-2-10.6c-1.4-3.5-3.5-6.6-6.3-9.2c-3.2-3-7.2-5.1-11.4-6.6c-5.5-1.9-11.6-2.5-17.3-2.5
		c-5.8,0-11.9,0.6-17.3,2.5c-4.1,1.5-8.2,3.5-11.3,6.6c-2.7,2.6-4.9,5.7-6.3,9.2c-1.3,3.4-2,6.9-2,10.6V520.2z"/>
</g>
</svg>
