<?xml version="1.0" encoding="utf-8"?>
<!-- Generator: Adobe Illustrator 17.1.0, SVG Export Plug-In . SVG Version: 6.00 Build 0)  -->
<!DOCTYPE svg PUBLIC "-//W3C//DTD SVG 1.1//EN" "http://www.w3.org/Graphics/SVG/1.1/DTD/svg11.dtd">
<svg version="1.1" id="Layer_1" xmlns="http://www.w3.org/2000/svg" xmlns:xlink="http://www.w3.org/1999/xlink" x="0px" y="0px"
	 viewBox="240 0 800 799.6" enable-background="new 240 0 800 799.6" xml:space="preserve">
<g>
	<path fill="#FFFFFF" d="M240,398.2C240,178.7,420.9-0.4,641.3,0C860.4,0.4,1040,180.4,1040,399.1c0,221.3-180.4,401.3-401.8,400.4
		C418.2,799.1,240,619.1,240,398.2z M843.6,724c106.7-56.9,215.6-219.6,172.9-408.9C976,135.1,812,8.4,625.8,13.8
		c-181.3,5.3-337.8,143.6-367.1,324c-30.2,185.8,82.7,338.7,177.8,385.8c0-11.1,0-21.3,0-31.6c1.8-87.6,60-155.1,146.7-164.4
		c37.8-4.4,77.3-4,115.1,0c85.3,9.8,143.6,76.9,145.8,163.1C844,701.3,843.6,712,843.6,724z M598.2,539.6
		C527.6,543.1,472,586.2,456,652c-4.9,20.4-3.6,42.7-6.2,63.6c-1.8,15.6,4.4,24,18.7,30.7c106.2,50.2,213.3,53.8,322.2,9.3
		c40.4-16.4,40.4-16.9,39.6-60.9c-1.3-74.7-45.8-134.2-114.7-149.8c-24-5.8-49.8-5.3-75.6-6.2"/>
	<path fill="#FFFFFF" d="M534.7,400.4c-0.4-57.8,48.4-106.2,105.8-105.8c56.9,0.4,104.4,47.6,104.9,104.9
		c0.4,57.8-48.4,106.2-105.8,105.8C582.2,504.9,534.7,457.3,534.7,400.4z M640.4,491.1c49.8-0.4,90.2-40.4,90.7-90.7
		c0.4-50.7-40.9-92.4-91.6-92c-49.8,0.4-90.2,40.9-90.7,90.7C548,449.8,589.8,491.1,640.4,491.1z"/>
</g>
</svg>
