<?xml version="1.0" encoding="utf-8"?>
<!-- Generator: Adobe Illustrator 17.1.0, SVG Export Plug-In . SVG Version: 6.00 Build 0)  -->
<!DOCTYPE svg PUBLIC "-//W3C//DTD SVG 1.1//EN" "http://www.w3.org/Graphics/SVG/1.1/DTD/svg11.dtd">
<svg version="1.1" id="Layer_1" xmlns="http://www.w3.org/2000/svg" xmlns:xlink="http://www.w3.org/1999/xlink" x="0px" y="0px"
	 viewBox="0 164.4 900 924" enable-background="new 0 164.4 900 924" xml:space="preserve">
<g>
	<path fill="#231F20" d="M816.3,684.2c0-0.8,0-0.8,0-1.6l0,0l-35.8-125.3c4.1-2.4,6.5-7.3,6.5-12.2c0-8.1-6.5-14.7-13.8-14.7
		l-62.7-216.5c0,0,0,0-0.8-0.8c0-0.8-0.8-0.8-0.8-0.8c-0.8,0-0.8-0.8-1.6-0.8c0,0,0,0-0.8,0l-344.3-61l0,0h-0.8
		c-0.8,0-1.6,0-1.6,0.8l0,0l-68.4,52.1c-3.3-2.4-5.7-4.1-9.8-4.1c-8.1,0-15.5,6.5-15.5,15.5c0,1.6,0.8,4.1,0.8,5.7L105.7,444.1l0,0
		c-0.8,0.8-0.8,0.8-0.8,1.6v0.8l0,0l-8.1,116.4c-7.3,1.6-12.2,7.3-12.2,14.7c0,6.5,4.1,12.2,10.6,14.7L83.7,774.5l0,0
		c0,0.8,0,0.8,0.8,1.6c0,0.8,0,0.8,0.8,1.6l0,0l127.8,119.6c-0.8,2.4-1.6,4.1-1.6,7.3c0,8.1,6.5,15.5,15.5,15.5
		c4.9,0,9-2.4,11.4-5.7l210,87.9c0.8,0,0.8,0,1.6,0c0.8,0,1.6,0,2.4-0.8l90.3-52.9l105,13c0,0,0,0,0.8,0s1.6,0,2.4-0.8
		c0,0,0-0.8,0.8-0.8c0-0.8,0.8-0.8,0.8-1.6l17.9-70c7.3-0.8,13-7.3,13-14.7c0-2.4-0.8-4.9-1.6-6.5l39.9-23.6l0,0l0,0l0,0
		c0.8,0,0.8-0.8,1.6-1.6l92.8-156.3l0,0C816.3,685,816.3,684.2,816.3,684.2z M808.1,682.5l-92,154.6l-39.9,23.6l22-85.5
		c8.1,0,14.7-6.5,14.7-15.5c0-4.9-2.4-9.8-6.5-12.2l62.7-188c0.8,0,1.6,0.8,2.4,0.8s0.8,0,1.6,0L808.1,682.5z M112.2,449
		l152.2-115.6L105.7,563.7h-0.8L112.2,449z M362.1,258.5l341,59.4l57.8,201L643.7,361.9l0,0c-0.8-0.8-0.8-0.8-1.6-0.8l-0.8-0.8l0,0
		L297,313c0-0.8,0-2.4-0.8-3.3L362.1,258.5z M241.6,902.3c-0.8-7.3-7.3-13-14.7-13c-0.8,0-0.8,0-1.6,0L108.2,589.8
		c4.1-2.4,7.3-7.3,7.3-12.2c0-3.3-0.8-5.7-2.4-8.1l163.6-240.1c1.6,0.8,3.3,0.8,4.9,0.8c6.5,0,11.4-4.1,13.8-9L638,368.4
		l122.9,165.2c-3.3,2.4-4.9,6.5-4.9,11.4s2.4,9,5.7,11.4l-62.7,188h-0.8h-0.8L655.1,615c0.8-1.6,0.8-2.4,0.8-4.1
		c0-4.9-2.4-9-6.5-12.2l-62.7-191.3l-0.8-0.8c0-0.8-0.8-0.8-0.8-0.8c-0.8,0-0.8,0-1.6-0.8h-0.8l-113.9,9.8c-2.4-4.9-7.3-8.1-13-8.1
		c-6.5,0-12.2,4.9-14.7,10.6l-188,15.5c-0.8,0-0.8,0-0.8,0.8c-0.8,0-0.8,0-1.6,0.8l-0.8,0.8l-0.8,0.8l-21.2,156.3
		c-0.8,0-0.8,0-1.6,0c-8.1,0-15.5,6.5-15.5,15.5c0,7.3,5.7,13.8,12.2,14.7l-13,100.1v0.8c0,0.8,0,0.8,0,1.6s0.8,0.8,0.8,1.6
		c0,0,0,0.8,0.8,0.8l67.6,44c-0.8,1.6-0.8,3.3-0.8,4.9c0,8.1,6.5,15.5,15.5,15.5c4.1,0,8.1-1.6,10.6-4.9l105,57
		c0.8,0,1.6,0.8,1.6,0.8h0.8l77.3-22c2.4,4.1,7.3,7.3,13,7.3c8.1,0,15.5-6.5,15.5-15.5l0,0l166.9-47.2c1.6,2.4,3.3,4.1,5.7,4.9
		l-22,86.3c-0.8,0-0.8,0-1.6,0c-8.1,0-15.5,6.5-15.5,15.5v0.8l-111.5,65.1L241.6,902.3z M216.4,889.3L91.9,772.9l10.6-174.2
		L216.4,889.3z M411.7,835.6l-102.6-57h28.5c1.6,6.5,7.3,11.4,14.7,11.4c5.7,0,10.6-3.3,13-7.3l122.1,32.6L411.7,835.6z
		 M257.1,440.8L441,425.3c0,0.8,0,1.6,0.8,2.4l-108.2,87.1c-1.6-0.8-3.3-0.8-4.9-0.8c-8.1,0-15.5,6.5-15.5,15.5c0,0.8,0,0.8,0,1.6
		l-78.9,63.5L257.1,440.8z M580.2,414L638.8,593l-72.4-70c0-1.6,0.8-2.4,0.8-4.1c0-8.1-6.5-15.5-15.5-15.5c-1.6,0-3.3,0.8-4.1,0.8
		l-78.9-74.9c0.8-1.6,1.6-4.1,1.6-6.5L580.2,414z M507.8,800.6c-1.6-0.8-3.3-0.8-4.9-0.8c-5.7,0-10.6,3.3-13,7.3l-122.1-32.6
		c0-0.8,0-1.6-0.8-2.4l78.1-35.8c2.4,2.4,6.5,4.9,10.6,4.9c8.1,0,15.5-6.5,15.5-15.5v-0.8l96-43.1c0,0,0-0.8,0.8-0.8
		s0.8-0.8,0.8-0.8c0-0.8,0-0.8,0.8-1.6v-0.8l-12.2-144.1c1.6-0.8,3.3-1.6,4.9-3.3l70.8,68.4c-4.1,2.4-7.3,7.3-7.3,13
		c0,4.9,2.4,9,6.5,12.2L507.8,800.6z M307.6,770.4c-1.6-6.5-7.3-11.4-14.7-11.4c-0.8,0-0.8,0-1.6,0l-56.2-140.8
		c3.3-2.4,6.5-7.3,6.5-12.2c0-2.4-0.8-4.1-1.6-5.7l77.3-62.7c0.8,0.8,1.6,1.6,2.4,2.4l10.6,81.4c-3.3,2.4-5.7,7.3-5.7,11.4
		c0,6.5,4.1,11.4,9,13.8l13,112.3c-4.1,1.6-7.3,5.7-9,9.8h-30.1V770.4z M447.6,434.3c2.4,1.6,5.7,3.3,9,3.3c2.4,0,4.9-0.8,7.3-2.4
		l77.3,74.1c-1.6,1.6-2.4,3.3-3.3,5.7H498c-1.6-6.5-7.3-11.4-14.7-11.4s-13,5.7-14.7,12.2l-124.5,8.1c-0.8-1.6-1.6-3.3-2.4-4.1
		L447.6,434.3z M354.8,759.9l-13-110.7c1.6,0,2.4,0,4.1-0.8l95.2,75.7c0,0.8-0.8,1.6-0.8,2.4c0,1.6,0.8,2.4,0.8,3.3l-77.3,35
		C361.3,762.3,358,760.7,354.8,759.9z M329.5,545c7.3,0,13-5.7,14.7-12.2l124.5-8.1c0,0.8,0.8,1.6,0.8,2.4l-122.1,95.2
		c-2.4-1.6-4.9-2.4-8.1-2.4c-0.8,0-0.8,0-1.6,0L329.5,545C328.7,544.2,328.7,545,329.5,545z M454.1,711c-4.1,0-7.3,2.4-9.8,4.9
		l-92.8-73.3c1.6-2.4,3.3-5.7,3.3-9c0-2.4-0.8-4.9-1.6-6.5l122.9-96c1.6,0.8,2.4,0.8,4.1,1.6L454.1,711z M462.2,712.7l26-179.9
		c4.9-1.6,8.1-5.7,9-9.8h39.9c1.6,5.7,5.7,9.8,11.4,10.6l12.2,141.6l-92.8,42.3C466.3,715.9,464.7,713.5,462.2,712.7z M231.1,629.6
		L284,763.1c0,0-0.8,0-0.8,0.8L218,721.6L231.1,629.6z M514.3,804.6l125.3-179.1h0.8c3.3,0,5.7-0.8,8.1-3.3L689.3,746
		c-4.1,2.4-6.5,7.3-6.5,12.2l0,0l-167.7,48.8C515.1,806.3,514.3,805.4,514.3,804.6z M449.2,993.5l-193.7-80.6l273.5,34.2
		L449.2,993.5z M655.1,882.8c1.6,2.4,3.3,4.1,6.5,5.7l-16.3,65.1l-91.2-11.4L655.1,882.8z"/>
</g>
</svg>
